<svg width="119" height="87" viewBox="0 0 119 87" fill="none" xmlns="http://www.w3.org/2000/svg">
<path d="M21.9938 57.22V79H16.7798L9.15682 66.196L7.27582 62.632H7.24282L7.37482 66.394V79H3.28282V57.22H8.46382L16.0868 69.991L17.9678 73.588H18.0338L17.9018 69.826V57.22H21.9938ZM34.5792 62.17C36.2512 62.17 37.7142 62.511 38.9682 63.193C40.2442 63.875 41.2342 64.854 41.9382 66.13C42.6642 67.406 43.0272 68.946 43.0272 70.75C43.0272 72.532 42.6642 74.072 41.9382 75.37C41.2342 76.646 40.2442 77.625 38.9682 78.307C37.7142 78.989 36.2512 79.33 34.5792 79.33C32.9292 79.33 31.4662 78.989 30.1902 78.307C28.9142 77.625 27.9132 76.646 27.1872 75.37C26.4832 74.072 26.1312 72.532 26.1312 70.75C26.1312 68.946 26.4832 67.406 27.1872 66.13C27.9132 64.854 28.9142 63.875 30.1902 63.193C31.4662 62.511 32.9292 62.17 34.5792 62.17ZM34.5792 65.536C33.7432 65.536 33.0282 65.734 32.4342 66.13C31.8622 66.504 31.4222 67.076 31.1142 67.846C30.8062 68.616 30.6522 69.584 30.6522 70.75C30.6522 71.916 30.8062 72.884 31.1142 73.654C31.4222 74.424 31.8622 75.007 32.4342 75.403C33.0282 75.777 33.7432 75.964 34.5792 75.964C35.3932 75.964 36.0862 75.777 36.6582 75.403C37.2522 75.007 37.7032 74.424 38.0112 73.654C38.3192 72.884 38.4732 71.916 38.4732 70.75C38.4732 69.584 38.3192 68.616 38.0112 67.846C37.7032 67.076 37.2522 66.504 36.6582 66.13C36.0862 65.734 35.3932 65.536 34.5792 65.536ZM46.8101 79V62.5H50.7371L51.0341 65.734C51.4741 64.59 52.1121 63.71 52.9481 63.094C53.8061 62.478 54.8731 62.17 56.1491 62.17C56.5231 62.17 56.8641 62.203 57.1721 62.269C57.4801 62.335 57.7331 62.423 57.9311 62.533L57.4031 66.328C57.1831 66.24 56.9081 66.174 56.5781 66.13C56.2701 66.086 55.8631 66.064 55.3571 66.064C54.6971 66.064 54.0591 66.229 53.4431 66.559C52.8271 66.867 52.3211 67.351 51.9251 68.011C51.5291 68.649 51.3311 69.463 51.3311 70.453V79H46.8101ZM75.4293 58.573L75.9573 61.807C75.8693 61.807 75.7703 61.807 75.6603 61.807C75.5723 61.785 75.4733 61.774 75.3633 61.774C74.3513 61.774 73.5923 62.005 73.0863 62.467C72.5803 62.907 72.3273 63.523 72.3273 64.315L70.4793 63.556C70.4793 62.676 70.6553 61.862 71.0073 61.114C71.3593 60.344 71.8763 59.728 72.5583 59.266C73.2623 58.804 74.0983 58.573 75.0663 58.573C75.1103 58.573 75.1653 58.573 75.2313 58.573C75.2973 58.573 75.3633 58.573 75.4293 58.573ZM70.0173 75.898C71.7993 75.898 73.1743 76.283 74.1423 77.053C75.1103 77.823 75.5943 78.901 75.5943 80.287C75.5943 81.541 75.2313 82.597 74.5053 83.455C73.7793 84.335 72.7563 84.995 71.4363 85.435C70.1383 85.875 68.6313 86.095 66.9153 86.095C64.0773 86.095 61.9983 85.699 60.6783 84.907C59.3803 84.115 58.7313 83.081 58.7313 81.805C58.7313 80.903 59.0723 80.144 59.7543 79.528C60.4583 78.912 61.6133 78.571 63.2193 78.505L63.0543 79.033C61.9103 78.835 61.0303 78.461 60.4143 77.911C59.8203 77.339 59.5233 76.558 59.5233 75.568C59.5233 74.556 59.9083 73.731 60.6783 73.093C61.4703 72.433 62.5373 72.048 63.8793 71.938L65.8593 72.862H65.3973C64.4513 72.928 63.7803 73.126 63.3843 73.456C63.0103 73.764 62.8233 74.116 62.8233 74.512C62.8233 74.974 62.9993 75.326 63.3513 75.568C63.7253 75.788 64.2533 75.898 64.9353 75.898H70.0173ZM66.9483 82.993C68.0923 82.993 69.0273 82.894 69.7533 82.696C70.5013 82.498 71.0513 82.245 71.4033 81.937C71.7773 81.629 71.9643 81.288 71.9643 80.914C71.9643 80.496 71.7993 80.155 71.4693 79.891C71.1393 79.649 70.5453 79.528 69.6873 79.528H64.1103C63.5823 79.528 63.1423 79.66 62.7903 79.924C62.4603 80.188 62.2953 80.551 62.2953 81.013C62.2953 81.629 62.7023 82.113 63.5163 82.465C64.3523 82.817 65.4963 82.993 66.9483 82.993ZM66.9813 62.17C68.5213 62.17 69.8523 62.401 70.9743 62.863C72.1183 63.303 72.9873 63.941 73.5813 64.777C74.1973 65.613 74.5053 66.614 74.5053 67.78C74.5053 68.924 74.1973 69.914 73.5813 70.75C72.9873 71.586 72.1183 72.235 70.9743 72.697C69.8523 73.137 68.5213 73.357 66.9813 73.357C64.5393 73.357 62.6693 72.862 61.3713 71.872C60.0953 70.86 59.4573 69.496 59.4573 67.78C59.4573 66.614 59.7543 65.613 60.3483 64.777C60.9643 63.941 61.8333 63.303 62.9553 62.863C64.0773 62.401 65.4193 62.17 66.9813 62.17ZM66.9813 65.008C66.1013 65.008 65.3753 65.25 64.8033 65.734C64.2313 66.218 63.9453 66.889 63.9453 67.747C63.9453 68.605 64.2313 69.287 64.8033 69.793C65.3753 70.277 66.1013 70.519 66.9813 70.519C67.8613 70.519 68.5763 70.277 69.1263 69.793C69.6983 69.287 69.9843 68.605 69.9843 67.747C69.9843 66.889 69.6983 66.218 69.1263 65.734C68.5763 65.25 67.8613 65.008 66.9813 65.008ZM80.6047 60.124C79.6587 60.124 78.9547 59.926 78.4927 59.53C78.0307 59.112 77.7997 58.507 77.7997 57.715C77.7997 56.901 78.0307 56.296 78.4927 55.9C78.9547 55.482 79.6587 55.273 80.6047 55.273C81.5507 55.273 82.2547 55.482 82.7167 55.9C83.1787 56.296 83.4097 56.901 83.4097 57.715C83.4097 58.507 83.1787 59.112 82.7167 59.53C82.2547 59.926 81.5507 60.124 80.6047 60.124ZM82.8487 62.5V79H78.3277V62.5H82.8487ZM93.4821 57.451V73.621C93.4821 74.413 93.6801 74.996 94.0761 75.37C94.4941 75.722 95.0551 75.898 95.7591 75.898C96.3091 75.898 96.7931 75.821 97.2111 75.667C97.6291 75.491 98.0031 75.26 98.3331 74.974L99.0591 77.977C98.5311 78.395 97.8711 78.725 97.0791 78.967C96.2871 79.209 95.4511 79.33 94.5711 79.33C93.4711 79.33 92.4921 79.165 91.6341 78.835C90.7981 78.505 90.1381 77.977 89.6541 77.251C89.1921 76.525 88.9611 75.557 88.9611 74.347V58.705L93.4821 57.451ZM98.7621 62.5V65.866H85.9251V62.5H98.7621ZM111.387 68.473C111.387 67.527 111.112 66.79 110.562 66.262C110.034 65.734 109.33 65.47 108.45 65.47C107.636 65.47 106.921 65.679 106.305 66.097C105.689 66.515 105.238 67.208 104.952 68.176L101.091 66.988C101.465 65.536 102.279 64.37 103.533 63.49C104.809 62.61 106.514 62.17 108.648 62.17C110.1 62.17 111.365 62.401 112.443 62.863C113.521 63.303 114.357 63.974 114.951 64.876C115.567 65.778 115.875 66.911 115.875 68.275V74.974C115.875 75.81 116.271 76.228 117.063 76.228C117.437 76.228 117.789 76.173 118.119 76.063L117.855 78.868C117.283 79.154 116.568 79.297 115.71 79.297C114.94 79.297 114.247 79.165 113.631 78.901C113.015 78.637 112.531 78.241 112.179 77.713C111.827 77.163 111.651 76.481 111.651 75.667V75.535L112.443 75.403C112.311 76.239 111.948 76.954 111.354 77.548C110.76 78.12 110.034 78.56 109.176 78.868C108.34 79.176 107.471 79.33 106.569 79.33C105.447 79.33 104.479 79.165 103.665 78.835C102.851 78.483 102.224 77.977 101.784 77.317C101.344 76.657 101.124 75.843 101.124 74.875C101.124 73.643 101.52 72.642 102.312 71.872C103.104 71.08 104.237 70.541 105.711 70.255L111.915 69.001L111.882 71.806L107.922 72.598C107.174 72.752 106.602 72.961 106.206 73.225C105.832 73.467 105.645 73.874 105.645 74.446C105.645 74.996 105.843 75.414 106.239 75.7C106.657 75.986 107.152 76.129 107.724 76.129C108.186 76.129 108.637 76.074 109.077 75.964C109.517 75.854 109.913 75.678 110.265 75.436C110.617 75.194 110.892 74.864 111.09 74.446C111.288 74.028 111.387 73.522 111.387 72.928V68.473Z" fill="white"/>
<path fill-rule="evenodd" clip-rule="evenodd" d="M58.7859 0.455889C58.5614 0.706514 57.8704 1.46264 57.2502 2.13598C56.6301 2.80942 55.6998 3.82619 55.183 4.39568C54.6662 4.96506 53.8206 5.88043 53.3038 6.42979C51.8898 7.93297 51.5751 8.83624 52.0121 10.1373L52.1952 10.6825L51.9978 10.7225C50.1552 11.0969 49.5381 11.6196 48.2559 13.8921C47.9187 14.4899 47.1512 15.8002 46.5503 16.8038C45.9495 17.8075 45.4579 18.6434 45.4579 18.6614C45.4579 18.6793 45.2467 19.0549 44.9886 19.4959C44.3105 20.6548 43.7982 21.0557 42.4688 21.4681C40.6391 22.0358 39.3123 23.0831 37.5203 25.3744C36.9065 26.1593 34.9439 28.5194 34.5011 29.0051L34.3789 29.1391L33.9944 28.871C33.3817 28.444 32.166 27.3634 30.8466 26.0734C30.1748 25.4164 29.2921 24.5875 28.8851 24.2314L28.1452 23.5837L27.6757 24.101C27.4174 24.3856 26.5255 25.3838 25.6939 26.3194C22.7959 29.5793 22.6335 29.6874 20.3774 29.8614C19.1282 29.9577 18.6635 30.1532 17.9511 30.8819C15.7191 33.1648 12.2153 36.7567 11.5899 37.403C10.8686 38.1482 10.7777 38.3571 11.1704 38.3673C11.2012 38.3681 12.0892 37.7671 13.1436 37.0317C16.2438 34.8698 16.9274 34.4025 16.9527 34.428C16.9659 34.4412 17.0176 34.7838 17.0676 35.1893C17.1177 35.5948 17.1832 35.9514 17.2133 35.9815C17.3772 36.1465 18.6575 35.6076 20.4435 34.6218C20.944 34.3456 20.8983 34.3365 21.03 34.7381L21.1411 35.0766L21.3897 35.0124C21.5264 34.9772 21.8708 34.9131 22.1551 34.8701C22.4393 34.8271 22.989 34.7381 23.3766 34.6722L24.0813 34.5525L24.6041 34.0608C25.9663 32.7797 27.3861 32.3316 28.8823 32.7106C29.3661 32.8331 29.4618 32.7844 29.3233 32.4856C28.6916 31.1232 28.4599 29.8739 28.5865 28.5143C28.6972 27.326 28.6092 27.3027 30.8466 29.1114C31.9319 29.9887 32.8599 30.7687 32.9088 30.8448C33.0456 31.0574 32.2566 32.176 31.3256 33.0895C30.8879 33.5189 30.5442 33.8936 30.5616 33.9222C30.5791 33.9508 31.2634 33.9459 32.0825 33.9112C32.9015 33.8766 34.3136 33.8721 35.2206 33.9013L36.8696 33.9543L37.4419 33.5615C38.5609 32.7932 39.8845 32.3181 41.9343 31.9491C42.5544 31.8373 43.2165 31.7047 43.4054 31.654C43.5945 31.6034 44.1385 31.4801 44.6144 31.3799L45.4797 31.1977L46.3379 31.5132C48.9395 32.4694 52.4367 34.3465 54.2141 35.7408C54.4554 35.9301 54.7835 36.0577 55.2947 36.1609C55.6984 36.2424 56.293 36.3643 56.616 36.4318C57.34 36.583 57.3453 36.554 56.7567 35.6572C54.9549 32.9121 51.8349 30.1404 48.0437 27.9169C47.7865 27.766 47.4905 27.591 47.386 27.528C47.2816 27.4651 47.1328 27.3822 47.0552 27.3438C46.9777 27.3054 46.6066 27.0911 46.2303 26.8676C45.8542 26.6441 45.5287 26.4612 45.5072 26.4612C45.4856 26.4612 45.2226 26.3187 44.9226 26.1445C44.6227 25.9703 43.9967 25.6231 43.5316 25.373C42.3558 24.7405 41.8675 24.4676 41.675 24.3351L41.5096 24.2213L42.1257 24.1186C44.1281 23.7849 45.8476 22.0483 47.9003 18.2866C50.2045 14.0638 51.1577 12.9602 53.3009 12.0341L53.7736 11.8299L53.9924 11.2831C54.3612 10.3616 54.9519 9.55693 56.3088 8.12737C57.0241 7.37369 57.7248 6.59762 57.8659 6.40266L58.1224 6.04827L58.87 6.84267C60.1507 8.20335 60.6595 9.51582 60.5549 11.1887C60.4882 12.256 60.5584 12.2084 58.9216 12.2959C56.4501 12.4281 56.4715 12.4131 52.3624 16.8686C51.6916 17.5961 50.7832 18.5712 50.3439 19.0354L49.5452 19.8795L49.8271 19.9593C49.9822 20.0031 50.997 20.0648 52.0823 20.096C54.8488 20.176 55.1968 20.3629 56.2517 22.335C56.9112 23.568 57.2319 23.9022 58.4489 24.6243C59.0127 24.9589 59.4903 25.2326 59.5102 25.2326C59.5301 25.2326 59.8406 25.424 60.2001 25.6579C60.5596 25.8918 60.8789 26.0832 60.9096 26.0832C60.9403 26.0832 61.1443 26.199 61.363 26.3406C61.5815 26.4823 61.845 26.6452 61.9484 26.7028C62.0517 26.7604 62.6225 27.0857 63.2169 27.4258C64.4452 28.1286 66.1176 28.982 66.8814 29.2957C67.1657 29.4124 67.5251 29.5621 67.6801 29.6281C68.0414 29.7823 69.2992 30.202 69.8173 30.3413C70.5233 30.5312 72.258 31.4803 73.13 32.1538C73.1816 32.1937 73.6256 32.5297 74.1166 32.9003C74.955 33.5334 75.5617 34.0727 77.4992 35.9064C77.9385 36.3222 78.357 36.6636 78.4292 36.665C78.5918 36.6683 78.5174 35.5843 78.2995 34.7776C78.2224 34.4917 78.1587 34.0705 78.1581 33.8415L78.157 33.4252L78.3546 33.605C78.9683 34.1638 79.6429 35.7717 80.0851 37.7304C80.6701 40.3217 80.9061 40.8258 81.5334 40.8258H81.8215V40.215C81.8215 39.8271 81.7529 39.4293 81.6336 39.1248C81.4452 38.6439 81.3973 37.9666 81.5053 37.3093L81.563 36.9587L82.1563 36.7602C82.6062 36.6096 82.9785 36.5624 83.6958 36.5649L84.642 36.5683L85.3496 36.8646C86.1102 37.1831 86.85 37.6934 87.6003 38.4173C88.4305 39.2183 89.7437 40.3876 90.3855 40.8973L91.0096 41.3929H91.5365C91.8263 41.3929 92.0635 41.3572 92.0635 41.3136C92.0635 41.2483 90.5205 39.3551 88.6185 37.0869C88.1561 36.5354 86.8726 34.9512 85.0949 32.7377C82.226 29.1657 80.1869 27.289 77.916 26.1304C77.4093 25.8719 76.4656 25.0451 76.4656 24.8597C76.4656 24.8174 75.8694 23.6827 75.1406 22.338C73.6982 19.6767 73.083 18.4823 73.083 18.3428C73.083 18.2506 72.5884 17.1402 72.1741 16.302C71.1157 14.1611 69.4139 12.4902 66.9284 11.1518C64.8331 10.0233 63.3517 8.42524 62.3136 6.17302C61.4293 4.25477 59.3252 0 59.2608 0C59.224 0 59.0102 0.205169 58.7859 0.455889ZM87.1478 10.7499C87.1255 10.7888 86.9466 11.1184 86.7505 11.4823C85.3776 14.0293 83.8095 15.466 82.1921 15.6587C81.4961 15.7416 81.457 15.7881 79.0568 19.3884C76.7373 22.8676 76.7701 22.8114 76.9352 23.0115L77.0499 23.1505L77.439 22.8695C77.6531 22.7148 78.1087 22.2996 78.4515 21.9466C78.7944 21.5937 79.2309 21.2212 79.4213 21.1188L79.7676 20.9327L79.902 21.1161C79.9758 21.2171 80.0362 21.3987 80.0362 21.5198C80.0362 22.581 81.9701 21.4786 82.2955 20.2319C82.7279 18.5756 83.677 17.4658 85.5331 16.4464C85.8431 16.2761 86.49 15.9028 86.9705 15.6168L87.8442 15.0969L87.9802 15.2742C89.7938 17.6361 89.7792 17.7406 87.0951 21.5814C86.4114 22.5597 86.4096 22.5223 87.1304 22.2947C87.5207 22.1715 87.9789 22.1164 88.6194 22.1154C89.716 22.1137 90.062 22.1989 92.4863 23.0672C92.9514 23.2337 93.5434 23.421 93.8018 23.4833L94.2716 23.5965L94.2528 24.4382C94.2425 24.9011 94.1634 25.756 94.077 26.338C93.8025 28.1866 93.9688 29.5007 94.6188 30.6194L94.9208 31.1391L94.9938 30.6496C95.158 29.5495 96.0006 28.1947 96.6562 27.977C97.6407 27.6502 99.1522 28.0556 99.2456 28.6714C99.2703 28.8331 99.3527 29.3908 99.4289 29.9106C99.5598 30.8032 99.6315 31.308 100.045 34.2417C100.317 36.1737 100.384 36.1411 101.174 33.6908C102.192 30.5319 102.024 30.7921 102.736 31.2683C103.953 32.0826 106.215 33.0969 108.46 33.8349C108.77 33.9368 109.157 34.0642 109.32 34.1181C110.882 34.6348 112.764 34.9544 113.839 34.8856C114.183 34.8637 114.082 34.7306 113.629 34.6088C109.613 33.5285 104.122 29.8179 100.907 26.0123C100.27 25.2578 98.359 22.7305 98.359 22.6421C98.359 22.6181 98.1768 22.3299 97.9542 22.0018C97.7315 21.6737 97.5184 21.3414 97.4805 21.2635C96.7232 19.7069 96.0262 18.9473 95.11 18.6804C92.1559 17.8199 91.6072 17.414 90.2347 15.0734C89.8131 14.3544 87.2936 10.679 87.2223 10.679C87.2037 10.679 87.1702 10.7109 87.1478 10.7499ZM68.041 18.9422C70.2025 19.3582 72.1795 20.7604 72.99 22.4524C74.1101 24.7905 76.6375 27.5523 78.9087 28.9197C79.9743 29.5614 80.0327 29.6138 80.0348 29.9342C80.0369 30.2445 79.904 30.2122 78.204 29.4889C76.2165 28.6434 72.4391 26.3471 71.6735 25.519C71.6477 25.491 71.3094 25.2157 70.9218 24.9073C69.1728 23.5152 65.0316 19.0251 65.3665 18.8838C65.6432 18.7672 67.322 18.8039 68.041 18.9422ZM80.5061 20.4846C80.5061 20.6448 80.4321 20.792 80.3143 20.8659C79.9347 21.1043 79.8006 20.7421 80.148 20.4166C80.4237 20.1581 80.5061 20.1738 80.5061 20.4846ZM115.29 36.4105C107.719 45.3797 93.7245 47.7845 77.969 42.8234C77.0949 42.5482 76.2405 42.2771 74.1635 41.6164C73.2021 41.3105 72.5002 41.1022 71.8145 40.9194C71.6594 40.878 70.6869 40.6116 69.6533 40.3273C67.8734 39.8377 65.0458 39.134 63.4988 38.7956C63.1112 38.7108 62.6249 38.6036 62.4182 38.5572C61.8034 38.4192 58.8159 37.8283 57.9549 37.6745C54.4787 37.0532 52.466 36.7709 48.0888 36.2909C47.1706 36.1902 45.8081 36.0883 42.8934 35.9024C40.8854 35.7742 32.7029 35.8392 31.0345 35.9965C19.3387 37.0991 10.81 39.572 4.2319 43.7684C3.13037 44.4711 1.91336 45.396 2.03617 45.4372C2.08485 45.4535 2.46013 45.2972 2.8701 45.09C4.3098 44.3619 7.46751 43.2046 9.70496 42.5849C11.4202 42.11 12.9441 41.763 15.3427 41.3016C17.5681 40.8735 20.2577 40.5288 24.3162 40.1517C25.9916 39.9961 35.5431 39.933 37.4701 40.0648C38.3233 40.1232 39.6557 40.2113 40.4308 40.2606C41.206 40.3098 42.2631 40.3946 42.7799 40.449C43.2967 40.5033 44.3327 40.6118 45.082 40.6899C48.2126 41.0167 52.2293 41.6016 55.8408 42.2564C57.762 42.6049 61.9874 43.4327 62.5121 43.5637C62.7189 43.6152 63.5645 43.8055 64.3914 43.9866C65.2183 44.1676 66.3388 44.4255 66.8814 44.5596C70.3616 45.4199 71.9407 45.8316 73.9756 46.4094C74.6991 46.6149 75.5237 46.8463 75.8079 46.9238C76.0921 47.0012 76.7687 47.1886 77.3113 47.3401C82.0307 48.6579 88.7614 49.289 93.6609 48.8732C103.91 48.0031 111.296 43.8454 115.6 36.5226C116.199 35.5032 116.089 35.4635 115.29 36.4105Z" fill="white"/>
<path fill-rule="evenodd" clip-rule="evenodd" d="M57.4345 1.96446C55.3112 4.28955 54.751 4.89664 53.426 6.30854C51.9119 7.9222 51.5908 8.78842 52.026 10.0853C52.1345 10.4086 52.2232 10.6897 52.2232 10.7101C52.2232 10.7305 52.0015 10.7736 51.7307 10.8058C50.5534 10.946 49.4736 11.8213 48.6081 13.337C48.3595 13.7722 47.4931 15.2553 46.6829 16.6327C45.8725 18.0101 45.0914 19.3445 44.947 19.5978C44.4047 20.5496 43.7311 21.1054 42.7799 21.3858C40.8021 21.9692 39.4989 22.9251 37.8601 24.9946C36.543 26.6579 34.4502 29.1073 34.3463 29.1073C34.1623 29.1073 32.6795 27.8617 31.4066 26.6379C29.4062 24.7146 29.0026 24.336 28.5559 23.9636L28.1445 23.6207L27.6163 24.2037C27.3258 24.5242 26.2626 25.7056 25.2535 26.8288C22.8264 29.5304 22.5913 29.6799 20.4749 29.8665C18.7772 30.0162 19.0537 29.8066 14.7148 34.2328C11.5156 37.4963 10.9124 38.1534 11.0168 38.2609C11.1596 38.4078 10.9965 38.5109 14.6236 35.9816C15.8819 35.1043 16.9327 34.4078 16.9586 34.4338C16.9846 34.46 17.0493 34.8244 17.1026 35.2438C17.1558 35.6631 17.2256 36.0053 17.2576 36.0043C17.5598 35.9951 18.8416 35.4672 19.7348 34.9842C20.9104 34.3485 20.9785 34.3383 21.0755 34.7824C21.1214 34.9925 21.1795 35.0554 21.2942 35.0194C21.5371 34.9428 23.6541 34.5886 23.8683 34.5886C23.9761 34.5886 24.3561 34.3051 24.7393 33.939C25.1594 33.5377 25.6653 33.1676 26.0633 32.9704L26.7076 32.6512L27.7435 32.6524C28.3133 32.6529 28.924 32.6916 29.1006 32.7382L29.4218 32.8229L29.3456 32.6426C28.8447 31.4572 28.605 30.5159 28.5647 29.578C28.5247 28.6431 28.6595 27.5007 28.8098 27.5007C28.8567 27.5007 32.7945 30.6276 33.0441 30.863C33.1503 30.9631 32.1506 32.2902 31.4063 33.0374L30.5508 33.896L36.9632 33.8679L37.3816 33.5793C38.4876 32.8161 39.7431 32.3467 41.6373 31.9883C42.3174 31.8596 43.3179 31.6498 43.8605 31.522C45.4874 31.1391 45.4143 31.1397 46.3989 31.4983C48.9295 32.4198 51.3571 33.7352 54.3955 35.8313C54.6074 35.9775 54.9971 36.1103 55.4291 36.1835C55.8106 36.2481 56.3449 36.3478 56.6165 36.405C57.2774 36.5441 57.2879 36.5045 56.7928 35.7417C54.3945 32.0466 51.1581 29.5375 43.2262 25.224L41.4175 24.2403L41.8168 24.168C44.3564 23.7085 45.704 22.2848 48.5678 17.0355C50.093 14.2398 51.1436 13.063 52.8608 12.2267L53.7334 11.8017L54.0943 11.0277C54.5717 10.0037 54.8636 9.61505 56.3116 8.07425C56.9829 7.3599 57.6555 6.61445 57.8063 6.4175L58.0805 6.05952L58.3231 6.24909C58.8846 6.68769 59.6812 7.74141 60.1004 8.59989L60.5388 9.49768V10.7449C60.5389 12.308 60.6573 12.2007 58.778 12.3424C56.2961 12.5298 56.677 12.2392 51.2951 18.0503L49.5884 19.8931L50.0367 19.9635C50.2831 20.0022 51.2948 20.0483 52.2846 20.066L54.0842 20.0982L54.6155 20.3597C55.2431 20.6685 55.7352 21.2477 56.2634 22.299C57.0095 23.7841 56.8642 23.6641 60.5859 25.8683C65.1937 28.5974 66.8485 29.4051 69.6131 30.2745C71.6755 30.9232 73.8751 32.4535 77.0735 35.465C78.6669 36.9652 78.7365 36.9436 78.3434 35.0703C77.6332 31.686 79.1949 34.0834 80.1247 37.8049C80.8435 40.6817 81.0327 41.0417 81.692 40.7873C81.868 40.7193 81.8635 39.7869 81.6853 39.3577C81.4219 38.7237 81.339 37.9859 81.4688 37.429L81.5887 36.9146L82.1514 36.7352C84.1459 36.0995 85.7822 36.6714 88.0236 38.7878C88.6177 39.3485 89.5342 40.1641 90.0604 40.6002L91.017 41.3929H91.5481C92.2185 41.3929 92.3803 41.6574 89.8035 38.5408C88.5863 37.0688 87.1487 35.316 86.6087 34.6456C86.0687 33.9753 85.1434 32.8271 84.5524 32.094C82.451 29.4878 80.1306 27.3766 78.2573 26.3667C76.9768 25.6762 76.8121 25.4744 75.3981 22.8628C73.6661 19.6633 73.083 18.5342 73.083 18.3797C73.083 18.1176 71.9518 15.8835 71.3955 15.0472C70.345 13.4676 68.9742 12.2599 67.0806 11.246C64.5503 9.8911 63.2708 8.43233 61.8998 5.33949C61.3307 4.05556 59.3769 0.113405 59.2798 0.0531113C59.2448 0.0312808 58.4144 0.891459 57.4345 1.96446ZM86.7529 11.5101C86.4954 11.9606 86.268 12.3724 86.2476 12.4254C85.6999 13.843 83.5621 15.4842 81.9329 15.7378C81.4467 15.8135 81.6623 15.5335 78.8935 19.6868C77.6856 21.4991 76.8477 22.8444 76.8779 22.9236C77.0017 23.2481 77.402 22.9928 78.4481 21.9217C79.4505 20.8954 80.0362 20.7253 80.0362 21.4607C80.0362 21.8766 80.3031 21.9659 80.8834 21.7441C81.8391 21.3788 82.0131 21.1627 82.3798 19.8852C82.7699 18.5258 83.6481 17.5403 85.3589 16.5421C85.9198 16.2148 86.6902 15.7611 87.071 15.5339C87.944 15.0128 87.8254 14.9752 88.4845 15.9814C89.6867 17.8168 89.6767 17.8753 87.6674 20.7752C86.4709 22.502 86.4805 22.4692 87.2355 22.2485C88.5001 21.8787 89.8835 22.0742 92.2815 22.9617C92.9817 23.2208 93.7325 23.4614 93.95 23.4964L94.3453 23.56L94.2888 24.5145C94.2577 25.0394 94.1631 25.9154 94.0785 26.4612C93.8089 28.2006 94.0213 29.7002 94.674 30.6665L94.9294 31.0446L94.9575 30.7611C95.0571 29.755 95.8542 28.3486 96.5233 27.9987C96.7952 27.8565 98.2286 27.8751 98.789 28.028C99.0485 28.0989 99.2675 28.491 99.3389 29.0128C100.181 35.1732 100.3 35.8274 100.527 35.5533C100.602 35.4637 102.024 31.0595 102.024 30.9188C102.024 30.7666 102.165 30.7804 102.302 30.9459C103.346 32.2109 110.984 34.9286 113.281 34.852L114.098 34.8248L112.735 34.3155C106.189 31.8688 101.227 27.5526 97.1837 20.7897C96.1374 19.0394 96.0144 18.9352 94.5098 18.5238C92.3041 17.9206 91.5486 17.3255 90.285 15.1961C89.8329 14.4344 87.4633 10.935 87.2633 10.7339C87.2401 10.7104 87.0104 11.0598 86.7529 11.5101ZM67.962 18.9105C70.2303 19.2881 72.3005 20.8179 73.1928 22.7755C74.1324 24.837 77.0971 27.9387 79.2375 29.0996C79.9039 29.4609 79.9939 29.5452 80.0719 29.8812C80.1628 30.2728 80.0693 30.2624 78.7644 29.7355C75.0614 28.2403 71.9859 26.1266 68.5912 22.7438C67.2458 21.4031 65.2108 19.0683 65.2582 18.9198C65.3216 18.7215 66.7962 18.7164 67.962 18.9105ZM80.6 20.5255C80.6 20.656 80.2316 20.9799 80.0832 20.9799C79.8785 20.9799 79.9106 20.668 80.1463 20.3665L80.3503 20.1057L80.4751 20.2773C80.5438 20.3718 80.6 20.4834 80.6 20.5255ZM115.49 36.2199C107.867 45.4421 93.5889 47.8852 77.5462 42.7126C70.7456 40.5199 66.8154 39.4855 59.7872 38.0384C46.8177 35.3681 32.5911 35.1103 21.4503 37.3436C13.7752 38.8823 5.52615 42.2525 2.34456 45.1496L2 45.4632L2.5168 45.21C14.1011 39.533 34.1591 38.3496 55.1361 42.1055C58.1279 42.6412 62.849 43.5925 64.9552 44.0842C68.4178 44.8925 70.8853 45.5307 75.3851 46.7818C75.7985 46.8967 76.2636 47.0236 76.4187 47.0638C76.5737 47.1038 77.1886 47.2682 77.7851 47.4288C84.1153 49.1335 92.301 49.4411 98.2999 48.1996C105.991 46.6081 111.82 42.7659 115.265 37.0167C116.179 35.491 116.225 35.331 115.49 36.2199Z" fill="white"/>
<path fill-rule="evenodd" clip-rule="evenodd" d="M57.1093 2.33803C55.9465 3.61214 54.4827 5.19688 53.8566 5.85964C51.8765 7.95499 51.5486 8.72057 52.0353 10.112C52.1353 10.3978 52.2184 10.6577 52.2201 10.6895C52.2218 10.7212 52.0015 10.7736 51.7307 10.8058C50.6401 10.9357 49.4916 11.8104 48.7836 13.0503C48.6231 13.3313 47.8156 14.7096 46.9891 16.113C46.1627 17.5164 45.323 18.9623 45.1234 19.3261C44.4472 20.5577 43.827 21.0764 42.5628 21.4677C40.9839 21.9563 39.5413 22.9581 38.3927 24.3636C36.4804 26.7038 35.2687 28.166 34.8542 28.6337L34.3947 29.1524L34.171 29.0308C33.8033 28.8306 32.0421 27.2735 30.2714 25.583C29.3572 24.7101 28.4995 23.9184 28.3654 23.8236L28.1217 23.6511L26.7592 25.1599C26.0099 25.9897 24.9815 27.1428 24.4738 27.7225C23.0247 29.3775 22.4272 29.6982 20.4683 29.873C18.7537 30.0259 19.0213 29.8237 14.7622 34.1847C12.7043 36.2921 11.0076 38.0703 10.9918 38.1364C10.9096 38.4807 11.3303 38.2586 13.1098 37.0188C16.6248 34.5698 16.9054 34.3804 16.951 34.4262C16.9758 34.4511 17.0387 34.7637 17.0908 35.1207C17.143 35.4777 17.2022 35.8207 17.2224 35.8827C17.2888 36.0871 18.4339 35.6738 19.7124 34.9841L20.9268 34.3289L21.0314 34.6477C21.156 35.0275 21.0812 35.0236 22.7892 34.7397L24.1282 34.5171L24.7998 33.8798C26.0961 32.6498 27.5035 32.2913 29.1947 32.7604L29.4219 32.8233L29.3475 32.6428C28.7179 31.1133 28.3923 29.6238 28.5047 28.7869C28.5932 28.1278 28.7477 27.5007 28.8216 27.5007C28.8763 27.5007 32.631 30.4805 32.9957 30.8132C33.1529 30.9569 32.3528 32.0918 31.4626 32.9877L30.5647 33.8912L36.8947 33.8538L37.5822 33.4237C38.7929 32.6664 40.1336 32.2128 42.2172 31.8556C42.8379 31.7492 43.5567 31.6 43.8145 31.524C44.0724 31.4479 44.5661 31.337 44.9116 31.2774L45.5398 31.1691L46.415 31.5003C49.005 32.4808 51.5049 33.8041 53.7996 35.4091L54.6712 36.0189L55.8995 36.2552C57.3858 36.5412 57.3273 36.5948 56.6539 35.5636C54.2608 31.8979 51.1221 29.5203 42.5132 24.8517L41.4007 24.2485L42.1608 24.084C44.3989 23.5998 45.736 22.1507 48.4026 17.3191C50.1866 14.087 51.0215 13.1375 52.9127 12.191L53.7624 11.7658L53.956 11.2899C54.3982 10.2022 54.8563 9.58481 56.5459 7.79981C57.0887 7.22627 57.6656 6.58789 57.8279 6.38102L58.1229 6.00508L58.7202 6.61823C60.2145 8.1525 60.8264 9.8704 60.5468 11.7459L60.4835 12.1706L60.2293 12.2269C60.0895 12.2578 59.4677 12.3068 58.8476 12.3359C58.2274 12.365 57.4452 12.458 57.1093 12.5425L56.4985 12.6963L55.3807 13.7903C54.0725 15.0709 49.588 19.8732 49.6461 19.9315C49.6679 19.9534 50.669 19.9964 51.8706 20.0271L54.0555 20.0827L54.5933 20.3481C55.2382 20.6662 55.6578 21.1364 56.159 22.1024C57.0666 23.8514 56.7641 23.6207 62.747 27.1278C64.7567 28.3059 67.1565 29.4287 68.973 30.0407C70.6725 30.6134 71.3032 30.9107 72.4722 31.6902C74.2912 32.9031 74.612 33.1642 76.8842 35.2802L78.388 36.6808L78.4757 36.4831C78.536 36.3471 78.4995 35.9539 78.3587 35.2243C77.994 33.3348 78.0947 33.0735 78.7869 34.1126C79.2971 34.8786 79.6702 35.87 80.0397 37.4418C80.3661 38.8304 80.5199 39.3821 80.8017 40.1768L80.9904 40.709L81.3317 40.7647C81.8751 40.8533 81.9917 40.2686 81.6344 39.2464C81.3752 38.5043 81.323 37.9296 81.4653 37.3847L81.5866 36.9206L82.1034 36.733C82.4947 36.5909 82.8713 36.5438 83.6538 36.5388L84.6874 36.5324L85.3288 36.8019C86.1101 37.1303 86.8874 37.6923 87.8821 38.648C88.6826 39.4171 89.6 40.224 90.5036 40.954L91.058 41.4017L91.5372 41.3737C92.1585 41.3373 92.3629 41.6567 89.5205 38.2204C88.1476 36.5608 86.4168 34.4373 85.6742 33.5018C82.4773 29.474 80.4988 27.5735 78.2461 26.3667C77.1004 25.7529 76.6562 25.2539 75.7609 23.5755C75.3475 22.8004 74.5964 21.3996 74.0919 20.4626C73.5873 19.5257 73.1337 18.6092 73.0838 18.426C72.3442 15.7085 69.8892 12.772 67.1163 11.2882C64.6246 9.95479 63.3539 8.5481 62.0371 5.66572C61.3721 4.21016 59.3867 0.182204 59.2845 0.081557C59.251 0.048386 58.2721 1.06383 57.1093 2.33803ZM86.9104 11.2664C85.3212 14.1572 84.0393 15.3632 82.2054 15.6928C81.8405 15.7584 81.4842 15.8797 81.4136 15.9625C80.9455 16.5117 76.8384 22.82 76.8793 22.9271C76.9808 23.1935 77.2355 23.0392 78.1822 22.1376C79.2072 21.1614 79.555 20.9191 79.7971 21.0125C79.951 21.0719 79.9821 21.1333 80.0746 21.5602C80.1575 21.9433 80.366 21.9521 81.1148 21.6041C81.9035 21.2377 82.0224 21.0907 82.2741 20.1723C82.7585 18.4052 83.6486 17.4478 86.0499 16.1116C86.5925 15.8096 87.2191 15.4377 87.4424 15.2852C87.6656 15.1328 87.8602 15.0227 87.8746 15.0407C89.7112 17.3312 89.6988 17.8507 87.7395 20.7029C86.4862 22.5273 86.5092 22.4641 87.1703 22.2666C88.64 21.8276 89.4763 21.9527 92.6742 23.0894C93.191 23.273 93.7725 23.4524 93.9662 23.488L94.3186 23.5526L94.318 24.2272C94.3178 24.5983 94.2553 25.3172 94.1792 25.8248C93.8405 28.0845 93.9023 29.0586 94.4582 30.2254C94.8319 31.0096 94.9763 31.1374 94.9763 30.6841C94.9763 30.2316 95.1957 29.654 95.644 28.9258C96.2654 27.9165 96.5456 27.7989 98.0335 27.9236C99.3045 28.0301 99.1836 27.7342 99.8105 32.2732C100.055 34.0404 100.27 35.5022 100.289 35.5217C100.442 35.6755 100.665 35.1609 101.315 33.1592C101.726 31.8923 102.069 30.8444 102.076 30.8307C102.083 30.817 102.364 30.9916 102.701 31.2186C105.055 32.8061 110.492 34.7159 113.017 34.8422C113.612 34.872 114.076 34.8725 114.05 34.8435C114.023 34.8145 113.6 34.6461 113.11 34.4692C106.342 32.0276 101.018 27.4313 97.0852 20.6337C96.2101 19.1211 95.9151 18.8844 94.4595 18.5259C92.5282 18.0502 91.4509 17.2118 90.3274 15.3097C89.685 14.222 89.4819 13.9146 88.0966 11.9334C87.1847 10.6296 87.2426 10.6621 86.9104 11.2664ZM68.1969 18.9443C70.242 19.3651 72.2749 20.8354 73.0295 22.4396C73.2907 22.9951 74.1083 24.2379 74.8045 25.1381C76.2649 27.0264 77.3389 27.9612 79.598 29.3103C79.9912 29.5451 80.2652 30.0425 80.0955 30.2132C79.836 30.4743 74.1016 27.5397 72.989 26.5764C72.8598 26.4645 72.3101 26.0303 71.7675 25.6116C70.3329 24.5044 68.7129 23.0021 67.4925 21.6468C66.2717 20.2912 65.1901 18.9957 65.1901 18.8892C65.1901 18.6923 67.1462 18.7282 68.1969 18.9443ZM80.6 20.5673C80.6 20.7037 80.2399 20.9799 80.0623 20.9799C79.8692 20.9799 79.9241 20.5862 80.1512 20.3431L80.3603 20.1193L80.4801 20.2842C80.5461 20.3748 80.6 20.5023 80.6 20.5673ZM33.9004 35.8753C22.1472 36.3158 10.8111 39.4118 3.83228 44.0872C3.18628 44.5199 2.50975 45.0043 2.32887 45.1636L2 45.4532L3.08151 44.9464C13.8214 39.9135 31.886 38.5432 50.4849 41.3504C59.1843 42.6636 65.7949 44.102 75.432 46.7788C93.7935 51.879 109.448 47.8147 115.652 36.3369C116.008 35.6797 115.941 35.731 114.852 36.9512C108.567 43.9918 98.5932 46.6881 86.0277 44.7434C82.874 44.2553 80.9796 43.7954 77.0764 42.5705C73.3011 41.3856 72.3659 41.1006 71.2037 40.7803C70.506 40.5881 69.7449 40.3726 69.5124 40.3015C69.0121 40.1486 65.2457 39.2218 63.9686 38.9374C63.4776 38.828 62.8856 38.6944 62.6531 38.6404C54.0898 36.6544 42.5989 35.5493 33.9004 35.8753Z" fill="white"/>
<path fill-rule="evenodd" clip-rule="evenodd" d="M58.129 1.25218C57.5376 1.88886 56.549 2.96271 55.9322 3.63841C55.3153 4.31412 54.3302 5.3754 53.743 5.99686C51.8627 7.98693 51.5982 8.61916 52.0419 10.0639C52.1489 10.4122 52.2228 10.7061 52.2063 10.7171C52.1897 10.7279 51.9036 10.791 51.5705 10.8572C50.1213 11.1452 49.5958 11.6858 47.8402 14.6954C43.9295 21.3992 44.3308 20.8778 42.6399 21.4522C40.4145 22.2081 39.5591 22.8943 37.279 25.7524C36.9473 26.1682 36.1721 27.1038 35.5562 27.8315C34.9405 28.5592 34.4237 29.1702 34.4078 29.1895C34.3331 29.2802 32.5975 27.7968 31.0675 26.3347C29.2901 24.6362 28.2706 23.7206 28.1569 23.7206C28.0841 23.7206 25.8433 26.168 24.4242 27.7977C23.0369 29.3907 22.4617 29.7043 20.6204 29.871C18.9135 30.0256 18.8262 30.0708 17.362 31.5541C12.8396 36.1357 10.9735 38.0645 10.9735 38.1571C10.9735 38.5033 10.873 38.5656 15.2958 35.4801C17.1333 34.1982 17.0158 34.211 17.1297 35.2803C17.1823 35.7743 17.2303 35.9114 17.3504 35.9109C17.7333 35.9091 18.7254 35.5148 19.6755 34.9869C20.9513 34.2779 20.9411 34.2803 21.0438 34.6594C21.1431 35.0266 21.0119 35.0208 22.7082 34.7321L24.0857 34.4976L24.6472 33.9707C25.9651 32.7342 27.516 32.2711 28.9621 32.6825C29.4356 32.8172 29.4338 32.8211 29.1679 32.2164C28.4638 30.6151 28.2394 27.5007 28.8282 27.5007C28.9009 27.5007 32.5107 30.3624 32.9521 30.7699L33.0843 30.892L32.7641 31.4343C32.588 31.7325 32.0361 32.4052 31.5375 32.9292L30.6311 33.8819L36.9402 33.8289L37.4636 33.4795C38.553 32.7521 40.1261 32.2127 42.3571 31.8013C43.0548 31.6727 44.0061 31.4785 44.4713 31.3698C45.482 31.1338 45.5886 31.1468 46.9143 31.6701C49.0681 32.5201 52.1193 34.1832 54.0191 35.5426L54.6405 35.9871L55.888 36.2354C57.3883 36.5338 57.3189 36.5868 56.6818 35.6296C54.235 31.953 51.2318 29.6323 43.3503 25.3277L41.3836 24.2536L42.243 24.0416C44.4372 23.5003 45.6566 22.1964 48.165 17.7092C50.2143 14.0434 51.014 13.1084 52.8809 12.1951C53.2169 12.0308 53.5541 11.8629 53.6304 11.8222C53.7067 11.7814 53.8692 11.4968 53.9918 11.1899C54.3479 10.2971 54.9829 9.42822 56.2535 8.0959C56.9059 7.4115 57.5996 6.66019 57.7948 6.42629L58.1496 6.00102L58.828 6.72369C60.0715 8.04855 60.5939 9.22371 60.6072 10.7262C60.6214 12.3238 60.7058 12.2563 58.5454 12.3755L57.2096 12.4492L56.7131 12.6948C56.3651 12.8669 55.832 13.3299 54.9306 14.2432C53.3936 15.8002 49.6003 19.879 49.6445 19.9272C49.6616 19.9459 50.6822 19.9906 51.9126 20.0265L54.1494 20.0918L54.553 20.3037C55.2414 20.6651 55.643 21.1153 56.177 22.1239C56.8105 23.3204 57.3162 23.8966 58.177 24.4022C58.5458 24.6189 59.8412 25.3895 61.0557 26.1147C64.8842 28.4007 66.8788 29.3654 69.5752 30.2352C71.6213 30.8953 73.7021 32.3043 76.5604 34.9651L78.3919 36.6702L78.4759 36.4818C78.5315 36.3571 78.4917 35.9488 78.3583 35.2755C78.2476 34.7158 78.1587 34.0452 78.1608 33.7853L78.1648 33.3127L78.481 33.6727C79.1832 34.4721 79.6044 35.5408 80.2198 38.0852C80.4273 38.9428 80.6875 39.889 80.7979 40.1879L80.9988 40.7313H81.719L81.7785 40.4126C81.8136 40.2242 81.7755 39.8666 81.6854 39.5384C81.3666 38.3784 81.3411 38.2126 81.401 37.69C81.4826 36.9788 81.565 36.889 82.338 36.6673C84.2578 36.1165 85.7253 36.632 87.8189 38.5924C88.4221 39.1573 89.373 39.9972 89.9319 40.4589L90.9481 41.2984H91.4588C91.7397 41.2984 91.9695 41.2768 91.9695 41.2504C91.9695 41.2241 90.9218 39.9377 89.6412 38.3917C88.3607 36.8457 86.5499 34.624 85.6174 33.4545C82.2855 29.2759 80.5591 27.6421 77.9248 26.1743C77.4199 25.893 76.9083 25.5328 76.7877 25.3737C76.4252 24.8959 73.2052 18.8893 73.115 18.5228C72.9955 18.0374 71.8762 15.7957 71.3959 15.0797C70.3276 13.4875 69.0988 12.4106 67.0224 11.247C64.6008 9.89006 63.3899 8.59431 62.2542 6.14542C61.3403 4.17482 59.3248 0.0945042 59.2653 0.0945042C59.2317 0.0945042 58.7205 0.615506 58.129 1.25218ZM86.8488 11.4036C85.3667 14.1117 84.038 15.3379 82.1683 15.7239C81.777 15.8047 81.4756 15.9242 81.3922 16.0317C80.5613 17.1039 76.8232 22.8894 76.907 22.9737C77.0684 23.1361 77.3611 22.9325 78.359 21.9634C79.2135 21.1336 79.6128 20.8808 79.8429 21.0239C79.9039 21.0618 79.9423 20.9804 79.9423 20.813C79.9423 20.4678 80.3195 20.0741 80.4879 20.2435C80.6772 20.4339 80.6134 20.6808 80.3181 20.9004C79.9856 21.1477 79.9425 21.5268 80.2184 21.7779L80.4005 21.9438L81.0987 21.606C81.8907 21.2229 82.0467 21.0334 82.255 20.2008C82.6179 18.7505 83.4791 17.6607 84.9922 16.7374C86.8828 15.5837 87.8743 15.0311 87.9237 15.1036C89.7778 17.831 89.7793 17.7782 87.7571 20.693C86.4708 22.547 86.5131 22.4419 87.1348 22.2378C87.4485 22.1348 87.9371 22.0849 88.6338 22.0847L89.6674 22.0844L90.6071 22.3761C91.1239 22.5366 92.0964 22.8622 92.7682 23.0997C93.44 23.3371 94.0638 23.5315 94.1542 23.5315L94.3186 23.5316V24.241C94.3186 24.6311 94.2511 25.386 94.1688 25.9184C93.8479 27.9912 93.9665 29.2989 94.5799 30.454C94.8768 31.0132 94.9393 31.015 95.0009 30.4664C95.112 29.4744 96.0929 28.037 96.7424 27.9146C97.1762 27.8326 98.6729 27.9333 98.9087 28.0602C99.2218 28.2287 99.3555 28.8428 99.8217 32.2534C100.191 34.9535 100.296 35.5362 100.411 35.5138C100.504 35.4955 100.801 34.709 101.297 33.171C101.708 31.8975 102.057 30.8412 102.074 30.8235C102.09 30.8059 102.349 30.9597 102.651 31.1653C104.988 32.7619 110.527 34.7126 113.062 34.8327L114.004 34.8773L113.722 34.7354C113.567 34.6574 113.017 34.4405 112.5 34.2533C106.267 31.9965 100.878 27.2059 96.9171 20.3995C96.2966 19.3335 95.92 18.9671 95.2382 18.7666C94.965 18.6862 94.382 18.5148 93.9427 18.3855C92.3209 17.9084 91.4303 17.1439 90.2854 15.2466C89.6594 14.209 87.5953 11.1699 87.3224 10.8839C87.2236 10.7803 87.1394 10.8728 86.8488 11.4036ZM67.5089 18.8127C69.9575 19.1486 72.1426 20.5635 72.9897 22.3614C74.1063 24.7318 76.9587 27.8113 79.1681 29.0321C79.8985 29.4356 80.1302 29.6775 80.1302 30.0364V30.2619L79.8882 30.2008C78.5954 29.8744 73.5584 27.2471 73.083 26.651C73.0571 26.6186 72.6766 26.3207 72.2373 25.9888C70.1098 24.3815 67.9757 22.3308 66.1994 20.1869C65.0436 18.7917 65.0599 18.829 65.5894 18.781C66.3992 18.7077 66.7906 18.7141 67.5089 18.8127ZM33.6185 35.9141C21.4926 36.4059 9.80391 39.7415 3.05746 44.6354C1.95199 45.4373 1.94983 45.5077 3.04731 44.9546C6.01739 43.458 11.6538 41.8375 16.7474 41.0156C32.892 38.4107 51.6117 40.2176 74.9622 46.6347C80.1222 48.0528 82.4213 48.4892 86.4121 48.8079C99.872 49.883 110.897 45.1798 115.647 36.3369L115.952 35.7699L115.362 36.4314C110.894 41.4497 105.82 44.054 98.4815 45.0964L96.9965 45.3073L93.6609 45.3065C87.5641 45.3048 83.6234 44.6491 76.8415 42.5078C71.9429 40.9613 69.6044 40.2959 65.9888 39.4201C54.6373 36.6704 43.831 35.5 33.6185 35.9141Z" fill="white"/>
<path fill-rule="evenodd" clip-rule="evenodd" d="M56.6279 2.90393C55.2131 4.44907 53.7383 6.04761 53.3508 6.45625C51.7595 8.1337 51.5423 8.95503 52.2584 10.5884C52.3101 10.7064 52.2062 10.7542 51.7146 10.8389C50.4845 11.0509 49.6485 11.6848 48.8548 13.0074C48.5784 13.468 47.621 15.0994 46.7272 16.6327C44.1568 21.0426 44.2655 20.9162 42.5407 21.4987C40.5124 22.1835 39.4311 23.0385 37.5193 25.4689C36.9465 26.197 35.4074 28.0424 34.4527 29.1455C34.307 29.314 32.6932 27.9544 30.4246 25.7517C29.1465 24.5106 28.2605 23.7206 28.147 23.7206C28.0934 23.7206 25.2152 26.8911 24.1643 28.1077C23.0423 29.4065 22.3792 29.7106 20.1647 29.9423C18.6858 30.097 19.1465 29.726 14.4497 34.543C10.9317 38.151 10.92 38.1637 11.0291 38.2735C11.0928 38.3375 12.0771 37.7055 14.0316 36.3453C15.8611 35.0721 16.9633 34.3608 17.0039 34.427C17.0395 34.4848 17.0975 34.8425 17.1328 35.2219C17.184 35.7713 17.2283 35.9113 17.3504 35.9104C17.7179 35.9075 18.7141 35.5018 19.7537 34.9319C20.9665 34.2669 20.983 34.2638 21.0748 34.6841C21.1488 35.0237 21.0128 35.0202 22.7003 34.7249L24.0813 34.4832L24.5041 34.0772C25.8955 32.7411 27.2358 32.2811 28.7179 32.6311L29.3141 32.7718L29.2614 32.5698C29.2323 32.4586 29.0524 31.9212 28.8616 31.3754L28.5145 30.3831L28.5156 29.2491C28.5163 28.4962 28.5621 27.9937 28.6516 27.754L28.7867 27.393L30.8032 29.0129C31.9124 29.9039 32.8776 30.6894 32.9482 30.7586C33.1637 30.9697 32.6449 31.7792 31.5852 32.8853L30.6325 33.8798L36.9483 33.8131L37.3272 33.5519C37.8604 33.1841 38.7208 32.7619 39.4912 32.4899C40.1354 32.2625 40.4944 32.1772 42.7799 31.7083C43.4001 31.5811 44.2035 31.4088 44.5652 31.3253C45.4173 31.1288 45.6788 31.1695 47.0197 31.7076C49.2248 32.5926 51.6082 33.8744 53.6326 35.2641L54.7132 36.0057L55.929 36.24C56.5977 36.3689 57.1577 36.4615 57.1733 36.4458C57.1889 36.4301 56.9443 36.0377 56.6298 35.5738C54.1192 31.8707 51.1309 29.567 43.3437 25.3315C41.1865 24.1582 41.2735 24.2347 41.9477 24.104C44.3263 23.6428 45.6328 22.2677 48.3284 17.3888C50.1389 14.1117 51.147 12.9741 53.0219 12.0926L53.7736 11.739L53.984 11.1854C54.3118 10.3228 54.8515 9.57536 56.099 8.25665C56.7322 7.58727 57.452 6.80601 57.6986 6.52032L58.1469 6.00102L58.8481 6.73891C60.09 8.046 60.5971 9.20613 60.6116 10.7735C60.6261 12.338 60.7264 12.2537 58.7066 12.376C56.4607 12.512 56.4571 12.5148 51.4969 17.8711L49.6061 19.9128L50.5153 19.9734C51.0154 20.0066 51.9588 20.0341 52.6117 20.0344C54.6332 20.0353 55.3741 20.4814 56.2649 22.2346C56.7656 23.22 57.3378 23.9115 57.9392 24.2581C58.1805 24.397 59.3503 25.0908 60.5389 25.7997C64.9915 28.455 66.7444 29.3133 69.5594 30.2163C71.765 30.9239 73.8319 32.3592 77.1242 35.4695L78.389 36.6643L78.4585 36.4752C78.4967 36.3713 78.4612 35.9361 78.3797 35.5083C78.298 35.0804 78.213 34.4114 78.1907 34.0215L78.1502 33.3127L78.4915 33.6908C79.1647 34.4365 79.6242 35.5752 80.1696 37.8489C80.3566 38.6286 80.6218 39.5961 80.759 39.9989L81.0084 40.7313H81.7276V40.1374C81.7276 39.7744 81.6505 39.3243 81.5293 38.9797C81.1323 37.8506 81.3704 36.9475 82.1285 36.7071C84.0734 36.0905 85.701 36.6069 87.703 38.4761C88.3183 39.0505 89.3059 39.9206 89.8975 40.4094L90.9733 41.2984H91.4714C92.1081 41.2984 92.3107 41.6197 89.6397 38.3942C88.3583 36.8468 86.68 34.7941 85.9101 33.8325C82.1615 29.1503 80.7836 27.8304 77.9607 26.2173C76.786 25.5461 76.8827 25.6718 75.3077 22.7701C73.9285 20.2293 73.4519 19.2773 72.6606 17.4833C71.3459 14.5021 69.6356 12.5915 67.1633 11.3416C65.6168 10.5598 64.0934 9.25414 63.2414 7.98013C62.8762 7.43399 61.9953 5.76551 61.9953 5.61969C61.9953 5.48673 59.3322 0.0945042 59.2665 0.0945042C59.2301 0.0945042 58.0427 1.35878 56.6279 2.90393ZM86.8003 11.4983C85.3724 14.1248 84.0503 15.3406 82.2124 15.7177C81.4518 15.8737 81.553 15.7527 79.0769 19.4679C76.5985 23.1866 76.8352 22.8013 76.9321 22.959C77.0488 23.1489 77.5044 22.83 78.3449 21.9703C79.0753 21.2233 79.4205 20.9799 79.7496 20.9799C79.8886 20.9799 79.9423 20.9187 79.9423 20.7601C79.9423 20.6393 80.0416 20.4465 80.1631 20.3317L80.3839 20.1231L80.5025 20.2668C80.6713 20.4714 80.5517 20.8341 80.2734 20.9617C79.9017 21.1321 80.0137 21.8305 80.4127 21.8305C81.0975 21.8305 82.0215 21.0832 82.2001 20.385C82.7091 18.3949 83.4252 17.5867 85.9559 16.1467C86.7053 15.7203 87.4379 15.2885 87.584 15.1872C87.8964 14.9705 87.8475 14.9279 88.5755 16.0502C89.6946 17.7755 89.6658 17.9439 87.7863 20.6746C87.1519 21.5962 86.6392 22.3564 86.6468 22.3638C86.6544 22.3712 86.9566 22.2993 87.3184 22.2039C88.6206 21.8604 89.819 22.0234 92.0635 22.849C92.7612 23.1057 93.5539 23.3685 93.8253 23.4331C94.1643 23.5137 94.322 23.5991 94.3294 23.7064C94.361 24.1615 94.2898 25.1976 94.171 26.0116C93.8868 27.9601 94.0194 29.4144 94.5759 30.4513C94.8593 30.9793 94.9315 30.9644 95.0111 30.3614C95.0945 29.7285 95.8581 28.3925 96.3072 28.0936L96.6529 27.8634L97.4664 27.8694C99.3791 27.8836 99.1329 27.2615 100.154 34.6594C100.282 35.5924 100.421 35.7647 100.609 35.2265C100.669 35.0575 101.015 34.005 101.379 32.8875C101.744 31.77 102.056 30.8402 102.074 30.8213C102.093 30.8025 102.404 30.9853 102.766 31.2275C105.313 32.9307 111.499 35.0045 113.586 34.8548L114.004 34.8248L113.252 34.5576C106.41 32.1247 101.202 27.6574 97.0935 20.6964C96.1306 19.0649 95.9514 18.9204 94.4126 18.5355C92.5053 18.0584 91.4157 17.1977 90.2922 15.2809C89.7605 14.3736 87.6198 11.2075 87.3194 10.8841C87.2244 10.7818 87.1276 10.8963 86.8003 11.4983ZM68.5258 18.9938C70.3225 19.4557 72.248 20.8501 72.8968 22.1592C74.1973 24.7834 76.7149 27.5833 78.9557 28.8975C79.944 29.4771 80.1302 29.6465 80.1302 29.965C80.1302 30.3223 80.1091 30.3197 78.8238 29.8046C77.0615 29.0982 73.5512 27.1905 73.13 26.7101C73.0783 26.6511 72.619 26.2902 72.1093 25.9081C70.8274 24.9468 69.177 23.4714 68.0307 22.2618C66.9599 21.132 65.1901 19.0408 65.1901 18.9054C65.1901 18.6549 67.4394 18.7145 68.5258 18.9938ZM33.8903 35.9179C21.7977 36.3615 10.2704 39.5849 3.3027 44.4708C2.19328 45.2487 2.13737 45.351 3.05144 44.9299C6.0451 43.5509 10.299 42.2244 14.0742 41.4927C14.6169 41.3875 15.2723 41.2593 15.5307 41.2078C17.6122 40.7933 21.5408 40.317 25.0679 40.0518C27.2618 39.8867 35.8609 39.8855 38.2697 40.0499C44.1422 40.4507 50.9724 41.2664 55.0353 42.0522C55.2716 42.0979 55.8666 42.2064 56.3576 42.2934C61.7564 43.2498 68.5903 44.8357 74.6803 46.5457C78.8453 47.715 80.5356 48.0908 83.3719 48.4775C98.2814 50.5103 110.329 45.9499 115.693 36.2424L115.954 35.7699L115.458 36.3369C110.037 42.5383 103.281 45.3147 93.6139 45.3141C87.395 45.3137 83.6666 44.672 76.1368 42.3059C60.6723 37.4464 47.3071 35.4255 33.8903 35.9179Z" fill="white"/>
<path fill-rule="evenodd" clip-rule="evenodd" d="M56.7775 2.76434C55.4354 4.23077 53.9083 5.88582 53.3839 6.44226C51.7999 8.12283 51.5762 8.95258 52.2641 10.5965C52.3165 10.7218 52.2447 10.763 51.8766 10.8185C50.4367 11.0356 49.5263 11.777 48.5458 13.531C48.333 13.9115 47.62 15.1372 46.9614 16.2547C46.3027 17.3722 45.5242 18.7015 45.2314 19.2086C44.3417 20.7502 43.9942 21.0428 42.4415 21.558C40.7445 22.1212 39.3017 23.2101 37.9671 24.9347C37.6191 25.3844 37.0849 26.0501 36.7801 26.4139C36.4752 26.7778 35.8251 27.5539 35.3354 28.1386C34.8458 28.7234 34.4093 29.2018 34.3655 29.2018C34.178 29.2018 32.3233 27.6055 30.8434 26.1705C29.9631 25.3168 28.9956 24.4064 28.6935 24.1474L28.1441 23.6764L27.804 24.0647C27.6169 24.2783 26.5225 25.4983 25.3718 26.7758L23.2796 29.0984L21.9201 29.7643L20.5753 29.9095C18.778 30.1034 18.9013 30.0213 16.0696 32.9099C10.3598 38.7346 10.1055 39.0467 12.322 37.5091C13.0015 37.0378 13.9078 36.4111 14.3362 36.1165C14.7645 35.8219 15.5233 35.2964 16.0224 34.9488C17.0792 34.2128 17.043 34.2097 17.1263 35.0443C17.1619 35.3994 17.2249 35.7454 17.2665 35.8131C17.3862 36.0078 18.4664 35.626 19.6505 34.9706C21.0087 34.2189 20.9912 34.2228 21.0697 34.6435L21.134 34.9876L21.4158 34.931C21.5708 34.8998 22.234 34.7846 22.8895 34.6749L24.0813 34.4756L24.6072 33.9721C25.8956 32.7387 27.3764 32.2585 28.7884 32.6161C29.3334 32.7541 29.3377 32.7449 29.056 32.0297C28.4108 30.3912 28.2618 27.9426 28.7759 27.4256C28.8362 27.3649 33.0548 30.8061 33.0548 30.9159C33.0548 31.1617 32.1096 32.4286 31.4076 33.1237L30.644 33.8798L36.9249 33.8218L37.4564 33.4602C38.3834 32.8292 39.8153 32.28 41.2765 31.9949C42.7705 31.7033 43.9193 31.4679 44.5182 31.3305C45.4236 31.1227 45.6573 31.1487 46.7569 31.5786C49.0626 32.4801 51.3326 33.6941 53.6326 35.2558L54.7132 35.9894L55.9112 36.2184C56.5702 36.3443 57.1093 36.4275 57.1093 36.4032C57.1093 36.1371 55.5532 34.0768 54.5614 33.03C52.2694 30.6106 49.5842 28.7686 43.4581 25.4134L41.3175 24.241L42.1427 24.0454C44.3655 23.5185 45.7402 22.0609 48.1558 17.6696C50.0818 14.1684 50.9944 13.094 52.788 12.217L53.7108 11.7658L54.0162 11.0697C54.4262 10.1353 54.9456 9.44504 56.3244 8.00253C56.9614 7.33608 57.5994 6.62465 57.7422 6.42156C58.0832 5.93676 58.1047 5.94205 58.8144 6.68618C60.1415 8.07756 60.6188 9.14092 60.6276 10.7262C60.6365 12.3179 60.6291 12.3237 58.5187 12.4146C57.873 12.4425 57.2302 12.5279 56.9213 12.6268L56.4045 12.7925L55.04 14.1692C53.6674 15.5541 50.1637 19.2921 49.8428 19.714L49.6705 19.9404L50.1247 19.9492C50.3745 19.9541 51.3822 19.9861 52.3641 20.0204L54.1494 20.0828L54.576 20.2939C55.2263 20.6158 55.6957 21.1523 56.2636 22.223C57.0374 23.6817 57.2703 23.8753 60.612 25.8352C63.8666 27.7441 63.5891 27.5891 65.284 28.4445C66.6943 29.1561 68.2795 29.8047 69.5587 30.1935C70.5828 30.5048 72.7331 31.6326 73.083 32.0418C73.1088 32.0719 73.3414 32.2391 73.5998 32.4133C74.2486 32.8504 75.4916 33.9041 76.5069 34.8773C76.9752 35.3262 77.5908 35.9 77.8751 36.1524L78.3919 36.6113L78.422 36.2442C78.4387 36.0422 78.3823 35.5224 78.2968 35.089C78.0491 33.8337 78.0943 33.127 78.3977 33.5087C79.1701 34.4802 79.6101 35.5058 80.08 37.4302C80.5108 39.1941 80.6916 39.8363 80.8965 40.3297L81.0632 40.7313H81.7276V40.1846C81.7276 39.8693 81.6436 39.3995 81.5291 39.0742C81.3344 38.5212 81.3148 37.4826 81.4904 37.0342C81.5881 36.7849 82.7903 36.478 83.6674 36.4784C85.1664 36.4789 86.2754 37.0476 88.01 38.705C88.5455 39.2165 89.4335 40.0088 89.9832 40.4653L90.9829 41.2955L91.9925 41.2984L91.8637 41.133C91.793 41.042 91.0134 40.0958 90.1313 39.0303C88.091 36.5653 86.6215 34.7602 85.4386 33.2655C82.3984 29.4239 80.2281 27.4077 77.7003 26.0769C77.3717 25.9039 76.9775 25.6112 76.8242 25.4266C76.5424 25.0869 73.3727 19.3063 73.1729 18.7675C71.7588 14.9546 70.134 12.9827 66.9809 11.2522C64.5051 9.89346 63.1317 8.33093 61.9087 5.48125C61.6296 4.83115 59.3714 0.261021 59.2827 0.167178C59.2469 0.129093 58.1195 1.29783 56.7775 2.76434ZM86.9029 11.3636C85.5403 13.9528 84.0476 15.3545 82.2519 15.7306C81.4314 15.9025 81.6586 15.6322 79.0627 19.5244C76.4923 23.3783 76.3079 24.0742 78.4389 21.8786C79.0788 21.2192 79.4278 20.9799 79.7496 20.9799C79.8925 20.9799 79.9423 20.9189 79.9423 20.7437C79.9423 20.3396 80.4239 19.967 80.543 20.2789C80.663 20.5933 80.5941 20.7891 80.3119 20.9359L80.0237 21.0858L80.0869 21.3873C80.1796 21.8304 80.2615 21.8774 80.7059 21.7435C81.6375 21.4629 82.0038 21.0802 82.2442 20.137C82.5772 18.8297 83.2669 17.8708 84.4711 17.0407C85.0552 16.638 87.7776 15.0262 87.8735 15.0262C87.96 15.0262 88.9072 16.5053 89.1198 16.9725C89.5501 17.9177 89.3832 18.4188 87.9585 20.4602C87.6683 20.876 87.2533 21.4727 87.0364 21.7861L86.6419 22.356L87.262 22.1932C88.4864 21.8718 89.6738 21.9962 91.4997 22.6377C92.0424 22.8284 92.8246 23.0897 93.238 23.2185C93.6515 23.3472 94.0902 23.4931 94.213 23.5427L94.4362 23.6329L94.373 24.4091C94.3382 24.8361 94.2435 25.6532 94.1624 26.2249C93.9754 27.5433 94.0323 29.1532 94.2877 29.7688C94.7634 30.9159 94.8806 30.9841 95.018 30.1941C95.3021 28.5612 96.3713 27.7193 97.9724 27.8679C99.3093 27.992 99.2366 27.8461 99.7187 31.3754C100.296 35.5996 100.284 35.5336 100.425 35.5336C100.47 35.5336 100.851 34.4704 101.274 33.171C101.696 31.8716 102.074 30.8084 102.114 30.8084C102.154 30.8084 102.476 31.0033 102.829 31.2416C105.266 32.8854 111.679 35.039 113.591 34.8554L113.91 34.8248L113.44 34.6456C107.015 32.1948 102.925 29.1069 99.0961 23.8151C98.4682 22.9471 98.0478 22.2913 96.5424 19.8314C96.1328 19.1622 95.6527 18.8675 94.486 18.5697C92.3838 18.0332 91.5355 17.3657 90.2388 15.2278C89.6335 14.2297 87.526 11.1064 87.2807 10.8438C87.2439 10.8046 87.074 11.0385 86.9029 11.3636ZM68.6444 19.0006C70.5225 19.5265 72.3211 20.9057 73.0294 22.3631C74.2553 24.8854 76.8039 27.6392 79.1764 29.0046C80.0452 29.5047 80.1885 29.6766 80.1145 30.1308L80.0832 30.323L78.9557 29.8707C77.141 29.1427 74.5139 27.7447 73.4017 26.9152C69.9894 24.3703 67.2308 21.7186 65.3413 19.1672L65.0836 18.8193L65.3952 18.774C66.1029 18.6714 67.9214 18.7982 68.6444 19.0006ZM34.3233 35.9223C23.1531 36.299 13.0017 38.8151 5.57191 43.0485C4.62382 43.5888 2.99375 44.6641 2.56378 45.0332L2.28189 45.2751L2.7517 45.0463C14.1045 39.5183 34.4027 38.3334 54.8542 42.0049C58.6607 42.6882 62.3933 43.4356 64.7673 43.9897C66.934 44.4955 71.1372 45.5451 72.4722 45.9138C72.834 46.0137 74.2082 46.3947 75.526 46.7604C81.4104 48.3936 84.8078 48.8904 90.1373 48.8972C101.974 48.9118 110.549 44.7581 115.455 36.6336C115.951 35.8123 115.91 35.7696 115.317 36.4917C108.579 44.6997 95.8553 47.4502 81.3047 43.8441C79.693 43.4447 79.5095 43.39 75.1971 42.0241C73.2236 41.3989 71.7163 40.9547 69.6533 40.3905C69.3432 40.3057 68.8993 40.1811 68.6667 40.1138C68.3003 40.0077 65.7428 39.3847 64.0155 38.9807C62.7344 38.6812 59.3468 37.9938 57.72 37.7034C51.1276 36.5267 42.2963 35.7197 37.2373 35.8317C36.8749 35.8397 35.5636 35.8805 34.3233 35.9223Z" fill="white"/>
<path fill-rule="evenodd" clip-rule="evenodd" d="M57.1093 2.42309C55.9465 3.69956 54.4341 5.34346 53.7482 6.07615C51.9347 8.01377 51.6162 8.82613 52.1333 10.1946C52.2389 10.4738 52.3128 10.7117 52.2977 10.7231C52.2826 10.7345 51.9642 10.817 51.5902 10.9064C50.3173 11.2106 49.5487 11.8576 48.6964 13.3426C48.4482 13.7747 47.5811 15.2553 46.7693 16.6327C45.9576 18.0101 45.2141 19.2807 45.1172 19.4562C45.0204 19.6317 44.8877 19.8724 44.8225 19.9911C44.5758 20.4403 43.6978 21.1366 43.1172 21.3433C42.8025 21.4553 42.2928 21.6367 41.9846 21.7462C40.5062 22.2719 39.2238 23.3479 37.6041 25.4216C36.8214 26.4236 35.5795 27.9131 34.7696 28.8211C34.6533 28.9515 34.5582 29.0905 34.5582 29.13C34.5582 29.5294 33.389 28.6302 31.2709 26.6019C28.3951 23.8482 28.1675 23.6542 28.0315 23.8412C27.9751 23.9187 27.5459 24.4018 27.0777 24.9145C26.6096 25.4273 25.7926 26.336 25.2624 26.9337C22.8091 29.6994 22.8115 29.6981 19.853 30.0097C19.5429 30.0424 19.1412 30.1339 18.9603 30.2131C18.5514 30.392 10.9562 38.0952 11.0699 38.2157C11.1139 38.2624 11.8623 37.8026 12.7758 37.1677C14.3872 36.0476 15.9645 34.9567 16.5937 34.5273C17.0376 34.2242 17.0484 34.2309 17.118 34.8495C17.1517 35.149 17.2101 35.505 17.2477 35.6407L17.316 35.8874L17.8328 35.7543C18.3625 35.6178 18.4803 35.5633 19.9638 34.7676C20.978 34.2237 20.9942 34.2211 21.0742 34.5875C21.1585 34.9732 21.1994 34.9847 21.934 34.8308C22.2881 34.7565 22.9146 34.6428 23.3261 34.5781L24.0743 34.4604L24.6063 33.9511C25.9406 32.6733 27.4468 32.1994 28.8396 32.6191C29.3195 32.7638 29.3385 32.7237 29.0746 32.1224C28.4066 30.6006 28.2212 27.4062 28.8008 27.4062C28.8569 27.4062 29.9409 28.2273 30.0479 28.3509C30.0738 28.3808 30.6806 28.8715 31.3965 29.4414C32.1124 30.0113 32.8046 30.5684 32.9349 30.6796L33.1716 30.8814L32.7422 31.549C32.506 31.9163 31.9618 32.5802 31.5326 33.0246L30.7525 33.8325H36.9272L37.2696 33.5682C38.3413 32.7407 39.8856 32.2062 42.639 31.71C43.1299 31.6214 43.7428 31.4818 44.0009 31.3997C44.6429 31.1954 45.8722 31.1902 46.3515 31.3897C49.7785 32.8159 51.2375 33.5838 53.5989 35.2035C54.4291 35.773 54.8512 36.0032 55.1493 36.0489C55.3745 36.0835 55.8642 36.1771 56.2372 36.2568C57.1563 36.4533 57.166 36.4374 56.6199 35.6281C54.6429 32.6979 51.9127 30.3272 47.4952 27.7046C46.7811 27.2805 46.1807 26.9337 46.1612 26.9337C46.1416 26.9337 45.8803 26.7912 45.5804 26.6169C45.2805 26.4427 44.7602 26.1522 44.4243 25.9714C43.0472 25.2301 41.3235 24.2683 41.3235 24.2411C41.3235 24.2251 41.6506 24.1388 42.0504 24.0494C44.5171 23.4974 45.6511 22.2098 48.9155 16.2547C50.0712 14.1466 51.4427 12.757 53.1111 12.0042C53.57 11.7972 53.7529 11.6589 53.8281 11.4624C54.2909 10.2525 54.9114 9.39287 56.5082 7.74935C56.988 7.25556 57.5357 6.65064 57.7254 6.40512C58.1391 5.86956 58.1771 5.88005 58.9341 6.73664C60.3481 8.3365 60.8979 9.9271 60.6383 11.6675L60.5721 12.112L60.2695 12.2392C60.103 12.3091 59.3345 12.4047 58.5616 12.4516C56.5558 12.5732 56.1726 12.8529 52.4415 16.9163C52.0836 17.3061 51.4753 17.9653 51.0897 18.3811C49.7773 19.7966 49.6963 19.8875 49.7221 19.9135C49.7363 19.9277 50.696 19.9568 51.8547 19.978C54.8206 20.0323 55.2832 20.2577 56.2546 22.1228C56.8879 23.3389 57.5658 24.1931 57.8975 24.1931C57.9245 24.1931 59.0102 24.831 60.3102 25.6107C61.6102 26.3903 62.6892 27.0282 62.7078 27.0282C62.7264 27.0282 63.0661 27.2211 63.4626 27.4569C64.1958 27.8928 66.7144 29.1436 67.3982 29.4113C68.3005 29.7647 68.5527 29.8567 68.9956 29.9949C70.2675 30.3915 70.6699 30.5435 71.1736 30.8172C71.6938 31.0997 72.8753 31.8435 73.1128 32.0378C73.1739 32.0878 73.6468 32.444 74.1635 32.8293C74.6803 33.2146 75.2561 33.6724 75.4429 33.8466C75.6297 34.0208 76.2639 34.6169 76.8523 35.1713C77.4407 35.7256 78.0383 36.2709 78.1805 36.383L78.4389 36.5868V36.2394C78.4389 36.0482 78.3505 35.4449 78.2425 34.8985C78.0278 33.8124 78.0549 33.1572 78.306 33.3667C78.973 33.9235 79.6694 35.5401 80.1755 37.7072C80.3151 38.3049 80.5558 39.204 80.7106 39.7052L80.9918 40.6164L81.2775 40.6739C81.4346 40.7054 81.6057 40.7313 81.6578 40.7313C81.8054 40.7313 81.6865 39.4049 81.5078 39.0586C81.3492 38.7513 81.2917 37.6116 81.4119 37.16C81.5686 36.5717 83.8526 36.1773 84.8535 36.5656C86.1191 37.0567 86.738 37.4578 87.7727 38.458C88.8063 39.457 89.0743 39.6958 90.1193 40.5472L91.041 41.2984H91.9858L91.3434 40.5192C90.9901 40.0907 90.6106 39.6335 90.5 39.5032C89.7603 38.6316 89.3034 38.0777 88.8239 37.4709C88.6185 37.211 88.2147 36.722 87.9265 36.3841C87.6382 36.0463 87.2989 35.6376 87.1724 35.4759C86.5309 34.6558 84.6141 32.2654 83.998 31.5172C82.4433 29.6289 79.7756 27.2367 78.3919 26.4901C78.1852 26.3785 77.8306 26.1882 77.604 26.0671C77.0376 25.7645 76.5277 25.152 76.0043 24.1458C75.7609 23.678 75.1782 22.5936 74.7092 21.736C73.5968 19.7017 73.0834 18.6934 73.0832 18.5423C73.0829 18.3647 71.8325 15.818 71.4728 15.2624C70.4026 13.6094 68.9204 12.2973 66.9893 11.2935C64.6193 10.0616 63.1084 8.34917 61.9032 5.5285C61.5996 4.81792 59.2827 0.0900625 59.2421 0.0982844C59.2319 0.100458 58.2721 1.14653 57.1093 2.42309ZM86.7009 11.7601C85.3612 14.1995 84.1909 15.2554 82.2926 15.7376L81.4951 15.9402L80.8295 16.9244C76.4962 23.3307 76.0525 24.2192 78.3305 21.9279C79.0908 21.1634 79.5519 20.8495 79.7837 20.9389C79.88 20.9761 79.9188 20.9201 79.9188 20.7443C79.9188 20.1748 80.4981 19.9161 80.6307 20.4264C80.6805 20.6181 80.3414 21.0744 80.1493 21.0744C79.966 21.0744 80.176 21.7828 80.3663 21.8065C81.0573 21.8927 82.0531 21.0039 82.2096 20.1611C82.518 18.5008 83.7136 17.3104 86.7546 15.6359C87.013 15.4936 87.3421 15.2942 87.4861 15.1929C87.8479 14.9381 87.9283 14.9939 88.5368 15.9234C89.7001 17.7001 89.6618 18.0505 88.0503 20.3657C87.7609 20.7815 87.3419 21.3879 87.1193 21.7133L86.7145 22.3049L86.9695 22.2482C87.1097 22.217 87.3631 22.1491 87.5327 22.0972C88.4665 21.8116 90.1179 22.0633 91.9695 22.7737C92.6469 23.0336 93.4123 23.2876 93.9662 23.4363L94.4126 23.5561L94.4122 24.1345C94.412 24.4526 94.3503 25.0945 94.275 25.5609C93.924 27.7356 93.9935 29.0912 94.5129 30.2066L94.8152 30.8556L94.974 30.274C95.1994 29.4485 95.8763 28.2971 96.2875 28.04L96.6207 27.8315L97.6395 27.8549C99.1506 27.8898 99.3117 28.0378 99.4831 29.549C99.5293 29.9566 99.6103 30.5663 99.663 30.9036C99.7158 31.2411 99.8295 32.0275 99.9158 32.6512C100.289 35.3496 100.347 35.6552 100.461 35.5258C100.48 35.504 100.844 34.4125 101.27 33.1001C101.696 31.7876 102.059 30.7139 102.077 30.7139C102.094 30.7139 102.375 30.9001 102.7 31.1278C105.011 32.7441 111.074 34.8414 113.516 34.869C113.837 34.8727 113.774 34.7275 113.417 34.6417C112.589 34.4424 109.73 33.1593 108.523 32.4446C108.144 32.2205 107.819 32.0369 107.801 32.0369C107.667 32.0369 104.628 29.8806 104.467 29.6714C104.441 29.6378 104.124 29.3537 103.762 29.0399C101.384 26.9775 98.931 23.9156 96.9156 20.493C96.0849 19.0824 95.9518 18.9822 94.3523 18.5642C92.6681 18.1241 91.556 17.35 90.6915 16.0162C90.4126 15.5857 90.1842 15.2063 90.1842 15.173C90.1842 15.0853 88.8061 13.0241 88.0306 11.952C87.6647 11.4462 87.3653 10.9953 87.3653 10.9501C87.3653 10.6901 87.1332 10.9733 86.7009 11.7601ZM68.6687 18.9779C70.6072 19.5499 72.4777 20.9918 73.0414 22.3486C73.1754 22.6713 74.4361 24.6439 74.5826 24.7601C74.6153 24.7861 74.8417 25.0707 75.0855 25.3927C76.1687 26.8228 77.7216 28.1758 79.2375 29.0103C79.9964 29.4279 80.1045 29.5362 80.1494 29.9222C80.2021 30.3766 80.1446 30.3852 79.3107 30.0481C77.0484 29.1334 74.9464 28.0338 73.5796 27.0501C73.31 26.8561 72.828 26.5108 72.5083 26.2826C71.1454 25.3098 68.811 23.1949 67.4871 21.7335C66.3246 20.4502 65.0961 18.9817 65.0961 18.8752C65.0961 18.6488 67.8187 18.7271 68.6687 18.9779ZM32.6319 36.0023C27.7162 36.2434 21.2111 37.2583 17.128 38.4211C11.5512 40.0092 7.3822 41.8117 3.77637 44.1935C2.56058 44.9966 2.27916 45.2683 3.05182 44.8929C4.38882 44.2435 5.80465 43.7099 8.62439 42.7929C8.80527 42.7341 9.08011 42.6552 9.23515 42.6175C9.39019 42.5798 9.8553 42.4537 10.2687 42.337C10.6822 42.2203 11.1684 42.0919 11.3493 42.0516C11.5302 42.0114 12.0799 41.8881 12.5708 41.7776C20.5565 39.9806 28.4347 39.4726 39.0684 40.069C43.209 40.3013 49.9807 41.112 54.4783 41.9138C54.8659 41.9829 55.5847 42.1101 56.0757 42.1964C56.8893 42.3395 57.8776 42.5298 60.6799 43.083C61.2225 43.1901 62.0682 43.3658 62.5591 43.4736C63.0501 43.5812 63.6581 43.7099 63.9103 43.7595C64.1624 43.8091 64.5218 43.8909 64.709 43.9412C64.8961 43.9914 65.62 44.1667 66.3176 44.3308C67.0153 44.4948 68.4741 44.8574 69.5594 45.1365C70.6446 45.4155 71.6383 45.6701 71.7675 45.7021C71.8967 45.7341 72.6578 45.9427 73.4588 46.1657C76.6912 47.0655 77.3899 47.2568 78.11 47.4395C83.9317 48.9164 91.7048 49.3069 96.9026 48.3834C100.428 47.7571 102.83 47.0083 105.568 45.6817C109.635 43.7114 112.965 40.6995 115.218 36.9512L115.758 36.0534L115.21 36.6659C111.178 41.1699 106.191 43.864 99.9094 44.9318C95.7558 45.6379 89.3525 45.5365 85.2982 44.7004C85.0656 44.6525 84.3891 44.5228 83.7947 44.4124C82.7645 44.2208 80.7686 43.7504 79.6604 43.4378C79.1418 43.2916 78.1285 42.9772 76.4656 42.4464C73.8984 41.6269 72.1041 41.0848 70.6399 40.6861C70.304 40.5946 69.8389 40.4662 69.6063 40.4006C68.5631 40.1065 67.944 39.9476 66.3176 39.5569C64.1668 39.0402 62.9758 38.766 62.1833 38.6053C61.8474 38.5371 61.1497 38.3952 60.6329 38.2899C59.7833 38.1167 59.231 38.0129 56.7804 37.5664C53.7269 37.0099 49.7788 36.5194 45.3169 36.142C43.2791 35.9696 35.128 35.8799 32.6319 36.0023Z" fill="white"/>
</svg>
